<svg viewBox="0 0 617.91 125.36" xmlns="http://www.w3.org/2000/svg">
  <defs>
    <style>
      .cls-1 {
        fill: #000091;
      }
      .cls-2 {
        fill: #000091;
      }
      .cls-3 {
        fill: #e1000f;
      }
      .cls-4 {
        fill: #7ab1e8;
      }
      .cls-5 {
        fill: #e1000f;
      }
      .cls-6 {
        fill: #3a3a3a;
      }
    </style>
  </defs>
  <g>
    <path class="cls-6" d="M157.77,100.2l5.57,13.96,5.56-13.96h2.3l-6.44,16.1h-2.85l-6.44-16.1h2.3Z"/>
    <path class="cls-6" d="M184.08,110.5c0,3.38-2.55,6.25-6.28,6.25s-6.28-2.87-6.28-6.25,2.53-6.25,6.28-6.25,6.28,2.88,6.28,6.25ZM182.01,110.5c0-2.41-1.77-4.42-4.18-4.42s-4.25,2-4.25,4.42,1.77,4.42,4.25,4.42,4.18-2.02,4.18-4.42Z"/>
    <path class="cls-6" d="M187.1,113.52c.81,1.01,1.77,1.61,2.94,1.61,1.29,0,2.02-.78,2.02-1.79,0-2.62-5.68-1.66-5.68-5.82,0-1.86,1.54-3.27,3.72-3.27,1.7,0,3.13.78,3.93,1.91l-1.36,1.17c-.64-.92-1.49-1.45-2.55-1.45-1.2,0-1.84.64-1.84,1.59,0,2.64,5.68,1.72,5.68,5.77-.02,2.16-1.75,3.52-3.91,3.52-1.84,0-3.29-.74-4.35-2.05l1.38-1.2Z"/>
    <path class="cls-6" d="M208.47,104.25c1.68,0,3.06.62,4.12,1.75v-6.94h1.96v17.25h-1.96v-1.29c-1.06,1.13-2.44,1.75-4.12,1.75-3.63,0-5.96-2.87-5.96-6.25s2.32-6.25,5.96-6.25ZM208.7,114.92c1.61,0,2.99-.78,3.89-2.16v-4.51c-.92-1.4-2.3-2.16-3.89-2.16-2.46,0-4.12,1.96-4.12,4.42s1.66,4.42,4.12,4.42Z"/>
    <path class="cls-6" d="M218.32,104.71h1.96v1.45c.85-1.01,1.91-1.68,3.38-1.68.37,0,.71.05.99.14v2.02c-.35-.09-.69-.16-1.15-.16-1.52,0-2.51.78-3.22,1.96v7.86h-1.96v-11.59Z"/>
    <path class="cls-6" d="M238.61,110.5c0,3.38-2.55,6.25-6.28,6.25s-6.28-2.87-6.28-6.25,2.53-6.25,6.28-6.25,6.28,2.88,6.28,6.25ZM236.54,110.5c0-2.41-1.77-4.42-4.18-4.42s-4.25,2-4.25,4.42,1.77,4.42,4.25,4.42,4.18-2.02,4.18-4.42Z"/>
    <path class="cls-6" d="M241.11,100.32c0-.74.62-1.36,1.38-1.36s1.36.62,1.36,1.36-.6,1.38-1.36,1.38-1.38-.62-1.38-1.38ZM241.5,104.71h1.96v11.59h-1.96v-11.59Z"/>
    <path class="cls-6" d="M247.97,106.5h-2.18v-1.79h2.18v-2.9h1.98v2.9h4.02v1.79h-4.02v5.91c0,1.82.92,2.32,2.32,2.32.76,0,1.29-.09,1.72-.28v1.75c-.55.23-1.17.32-2,.32-2.58,0-4.02-1.29-4.02-4.12v-5.91Z"/>
    <path class="cls-6" d="M257.29,113.52c.81,1.01,1.77,1.61,2.94,1.61,1.29,0,2.02-.78,2.02-1.79,0-2.62-5.68-1.66-5.68-5.82,0-1.86,1.54-3.27,3.72-3.27,1.7,0,3.13.78,3.93,1.91l-1.36,1.17c-.64-.92-1.49-1.45-2.55-1.45-1.2,0-1.84.64-1.84,1.59,0,2.64,5.68,1.72,5.68,5.77-.02,2.16-1.75,3.52-3.91,3.52-1.84,0-3.29-.74-4.35-2.05l1.38-1.2Z"/>
    <path class="cls-6" d="M279.02,116.76c-3.91,0-6.32-2.87-6.32-6.25s2.25-6.25,5.84-6.25c3.15,0,5.2,2.14,5.2,5.04,0,.46-.07.92-.14,1.24h-8.88v.05c0,2.55,1.75,4.42,4.35,4.42,1.47,0,2.71-.69,3.47-1.72l1.45,1.13c-1.08,1.45-2.8,2.37-4.97,2.37ZM274.88,108.99h6.88c-.07-1.68-1.29-3.06-3.2-3.06s-3.22,1.06-3.68,3.06Z"/>
    <path class="cls-6" d="M287.62,106.5h-2.18v-1.79h2.18v-2.9h1.98v2.9h4.02v1.79h-4.02v5.91c0,1.82.92,2.32,2.32,2.32.76,0,1.29-.09,1.72-.28v1.75c-.55.23-1.17.32-2,.32-2.58,0-4.02-1.29-4.02-4.12v-5.91Z"/>
    <path class="cls-6" d="M307.93,104.25c1.68,0,3.06.62,4.12,1.75v-6.94h1.96v17.25h-1.96v-1.29c-1.06,1.13-2.44,1.75-4.12,1.75-3.63,0-5.96-2.87-5.96-6.25s2.32-6.25,5.96-6.25ZM308.16,114.92c1.61,0,2.99-.78,3.89-2.16v-4.51c-.92-1.4-2.3-2.16-3.89-2.16-2.46,0-4.12,1.96-4.12,4.42s1.66,4.42,4.12,4.42Z"/>
    <path class="cls-6" d="M323.32,116.76c-3.91,0-6.32-2.87-6.32-6.25s2.25-6.25,5.84-6.25c3.15,0,5.2,2.14,5.2,5.04,0,.46-.07.92-.14,1.24h-8.88v.05c0,2.55,1.75,4.42,4.35,4.42,1.47,0,2.71-.69,3.47-1.72l1.45,1.13c-1.08,1.45-2.81,2.37-4.97,2.37ZM319.18,108.99h6.88c-.07-1.68-1.29-3.06-3.2-3.06s-3.22,1.06-3.68,3.06ZM321.96,102.87l2.39-3.82h2.21l-2.69,3.82h-1.91Z"/>
    <path class="cls-6" d="M331.15,104.71h1.96v1.26c.87-1.01,2.02-1.72,3.63-1.72,1.7,0,3.1.78,3.82,2.32.92-1.31,2.18-2.32,4.09-2.32,2.48,0,4.3,1.66,4.3,4.81v7.24h-1.95v-7.17c0-1.93-1.08-3.04-2.74-3.04-1.47,0-2.48.85-3.27,2.21.02.25.05.51.05.76v7.24h-1.98v-7.17c0-1.93-1.03-3.04-2.71-3.04-1.59,0-2.58.99-3.24,2.18v8.03h-1.96v-11.59Z"/>
    <path class="cls-6" d="M351.88,113.45c0-1.79,1.33-3.08,3.82-3.47l3.89-.64v-.8c0-1.61-1.15-2.53-2.78-2.53-1.36,0-2.48.6-3.15,1.61l-1.47-1.13c1.01-1.38,2.64-2.23,4.67-2.23,2.94,0,4.69,1.72,4.69,4.28v7.77h-1.96v-1.47c-.87,1.22-2.32,1.93-3.89,1.93-2.28,0-3.82-1.29-3.82-3.31ZM356.02,115.13c1.54,0,2.76-.8,3.56-2.14v-2.21l-3.43.6c-1.61.25-2.32.99-2.32,2s.85,1.75,2.18,1.75Z"/>
    <path class="cls-6" d="M365.21,104.71h1.96v1.45c.85-1.01,1.91-1.68,3.38-1.68.37,0,.71.05.99.14v2.02c-.35-.09-.69-.16-1.15-.16-1.52,0-2.51.78-3.22,1.96v7.86h-1.96v-11.59Z"/>
    <path class="cls-6" d="M382.56,113.19l1.56,1.2c-1.08,1.45-2.76,2.37-4.87,2.37-3.84,0-6.3-2.87-6.3-6.25s2.46-6.25,6.3-6.25c2.09,0,3.79.94,4.87,2.37l-1.56,1.2c-.71-1.03-1.89-1.72-3.31-1.72-2.48,0-4.25,1.96-4.25,4.42s1.77,4.42,4.28,4.42c1.43,0,2.58-.69,3.29-1.72Z"/>
    <path class="cls-6" d="M386.58,99.05h1.96v6.97c.94-1.04,2.14-1.77,3.86-1.77,2.6,0,4.53,1.75,4.53,5.04v7.01h-1.98v-6.94c0-2.07-1.13-3.27-2.94-3.27-1.7,0-2.74.99-3.47,2.18v8.03h-1.96v-17.25Z"/>
    <path class="cls-6" d="M406.06,116.76c-3.91,0-6.32-2.87-6.32-6.25s2.25-6.25,5.84-6.25c3.15,0,5.2,2.14,5.2,5.04,0,.46-.07.92-.14,1.24h-8.88v.05c0,2.55,1.75,4.42,4.35,4.42,1.47,0,2.71-.69,3.47-1.72l1.45,1.13c-1.08,1.45-2.8,2.37-4.97,2.37ZM401.92,108.99h6.88c-.07-1.68-1.29-3.06-3.2-3.06s-3.22,1.06-3.68,3.06Z"/>
    <path class="cls-6" d="M414.37,113.52c.8,1.01,1.77,1.61,2.94,1.61,1.29,0,2.02-.78,2.02-1.79,0-2.62-5.68-1.66-5.68-5.82,0-1.86,1.54-3.27,3.72-3.27,1.7,0,3.13.78,3.93,1.91l-1.36,1.17c-.64-.92-1.49-1.45-2.55-1.45-1.2,0-1.84.64-1.84,1.59,0,2.64,5.68,1.72,5.68,5.77-.02,2.16-1.75,3.52-3.91,3.52-1.84,0-3.29-.74-4.35-2.05l1.38-1.2Z"/>
    <path class="cls-6" d="M430.77,104.71h1.96v1.29c1.06-1.13,2.44-1.75,4.12-1.75,3.63,0,5.96,2.88,5.96,6.25s-2.32,6.25-5.96,6.25c-1.68,0-3.06-.62-4.12-1.75v6.95h-1.96v-17.25ZM436.61,114.92c2.46,0,4.14-1.95,4.14-4.42s-1.68-4.42-4.14-4.42c-1.61,0-2.99.78-3.89,2.21v4.42c.9,1.43,2.28,2.21,3.89,2.21Z"/>
    <path class="cls-6" d="M445.79,99.05h1.96v17.25h-1.96v-17.25Z"/>
    <path class="cls-6" d="M459.65,104.71h1.98v6.55c0,3.47-2,5.5-5.15,5.5s-5.13-2.02-5.13-5.5v-6.55h1.96v6.62c0,2.28,1.22,3.59,3.2,3.59s3.15-1.31,3.15-3.59v-6.62Z"/>
    <path class="cls-6" d="M465.31,113.52c.81,1.01,1.77,1.61,2.94,1.61,1.29,0,2.02-.78,2.02-1.79,0-2.62-5.68-1.66-5.68-5.82,0-1.86,1.54-3.27,3.72-3.27,1.7,0,3.13.78,3.93,1.91l-1.36,1.17c-.64-.92-1.49-1.45-2.55-1.45-1.2,0-1.84.64-1.84,1.59,0,2.64,5.68,1.72,5.68,5.77-.02,2.16-1.75,3.52-3.91,3.52-1.84,0-3.29-.74-4.35-2.05l1.38-1.2Z"/>
    <path class="cls-6" d="M481.85,113.52c.8,1.01,1.77,1.61,2.94,1.61,1.29,0,2.02-.78,2.02-1.79,0-2.62-5.68-1.66-5.68-5.82,0-1.86,1.54-3.27,3.72-3.27,1.7,0,3.13.78,3.93,1.91l-1.36,1.17c-.64-.92-1.49-1.45-2.55-1.45-1.2,0-1.84.64-1.84,1.59,0,2.64,5.68,1.72,5.68,5.77-.02,2.16-1.75,3.52-3.91,3.52-1.84,0-3.29-.74-4.35-2.05l1.38-1.2Z"/>
    <path class="cls-6" d="M491.24,100.32c0-.74.62-1.36,1.38-1.36s1.36.62,1.36,1.36-.6,1.38-1.36,1.38-1.38-.62-1.38-1.38ZM491.63,104.71h1.96v11.59h-1.96v-11.59Z"/>
    <path class="cls-6" d="M497.34,104.71h1.96v1.26c.87-1.01,2.02-1.72,3.63-1.72,1.7,0,3.1.78,3.82,2.32.92-1.31,2.18-2.32,4.09-2.32,2.48,0,4.3,1.66,4.3,4.81v7.24h-1.96v-7.17c0-1.93-1.08-3.04-2.74-3.04-1.47,0-2.48.85-3.27,2.21.02.25.05.51.05.76v7.24h-1.98v-7.17c0-1.93-1.03-3.04-2.71-3.04-1.59,0-2.58.99-3.24,2.18v8.03h-1.96v-11.59Z"/>
    <path class="cls-6" d="M518.84,104.71h1.96v1.29c1.06-1.13,2.44-1.75,4.12-1.75,3.63,0,5.96,2.88,5.96,6.25s-2.32,6.25-5.96,6.25c-1.68,0-3.06-.62-4.12-1.75v6.95h-1.96v-17.25ZM524.68,114.92c2.46,0,4.14-1.95,4.14-4.42s-1.68-4.42-4.14-4.42c-1.61,0-2.99.78-3.89,2.21v4.42c.9,1.43,2.28,2.21,3.89,2.21Z"/>
    <path class="cls-6" d="M533.86,99.05h1.96v17.25h-1.96v-17.25Z"/>
    <path class="cls-6" d="M545.13,116.76c-3.91,0-6.32-2.87-6.32-6.25s2.25-6.25,5.84-6.25c3.15,0,5.2,2.14,5.2,5.04,0,.46-.07.92-.14,1.24h-8.88v.05c0,2.55,1.75,4.42,4.35,4.42,1.47,0,2.71-.69,3.47-1.72l1.45,1.13c-1.08,1.45-2.8,2.37-4.97,2.37ZM540.99,108.99h6.88c-.07-1.68-1.29-3.06-3.2-3.06s-3.22,1.06-3.68,3.06Z"/>
    <path class="cls-6" d="M552.97,104.71h1.96v1.26c.87-1.01,2.02-1.72,3.63-1.72,1.7,0,3.1.78,3.82,2.32.92-1.31,2.18-2.32,4.09-2.32,2.48,0,4.3,1.66,4.3,4.81v7.24h-1.95v-7.17c0-1.93-1.08-3.04-2.74-3.04-1.47,0-2.48.85-3.27,2.21.02.25.05.51.05.76v7.24h-1.98v-7.17c0-1.93-1.03-3.04-2.71-3.04-1.59,0-2.58.99-3.24,2.18v8.03h-1.96v-11.59Z"/>
    <path class="cls-6" d="M579.94,116.76c-3.91,0-6.32-2.87-6.32-6.25s2.25-6.25,5.84-6.25c3.15,0,5.2,2.14,5.2,5.04,0,.46-.07.92-.14,1.24h-8.88v.05c0,2.55,1.75,4.42,4.35,4.42,1.47,0,2.71-.69,3.47-1.72l1.45,1.13c-1.08,1.45-2.81,2.37-4.97,2.37ZM575.8,108.99h6.88c-.07-1.68-1.29-3.06-3.2-3.06s-3.22,1.06-3.68,3.06Z"/>
    <path class="cls-6" d="M587.78,104.71h1.96v1.31c.94-1.04,2.14-1.77,3.86-1.77,2.6,0,4.53,1.75,4.53,5.04v7.01h-1.98v-6.94c0-2.07-1.15-3.27-2.94-3.27-1.68,0-2.74.97-3.47,2.18v8.03h-1.96v-11.59Z"/>
    <path class="cls-6" d="M602.36,106.5h-2.18v-1.79h2.18v-2.9h1.98v2.9h4.02v1.79h-4.02v5.91c0,1.82.92,2.32,2.32,2.32.76,0,1.29-.09,1.72-.28v1.75c-.55.23-1.17.32-2,.32-2.58,0-4.02-1.29-4.02-4.12v-5.91Z"/>
  </g>
  <g>
    <path class="cls-2" d="M161.23,34.57c2.23,2.86,5.19,4.56,8.21,4.56s4.77-1.59,4.77-4.29c0-6.62-16.96-5.14-16.96-17.49,0-5.88,4.82-10.76,11.87-10.76,5.56,0,9.86,2.49,12.98,6.25l-5.51,4.93c-2.17-2.81-4.61-4.61-7.42-4.61-2.6,0-4.29,1.7-4.29,3.87,0,6.62,16.96,5.09,16.96,17.65-.11,6.89-5.51,11.13-12.29,11.13-6.25,0-10.49-2.28-13.78-6.2l5.46-5.03Z"/>
    <path class="cls-2" d="M200.51,45.8c-9.49,0-14.84-6.62-14.84-14.41s4.98-14.41,13.72-14.41c7.42,0,12.29,4.98,12.29,11.98,0,1.48-.21,2.91-.42,3.82h-18.71c.42,4.4,3.5,7,8.06,7,2.91,0,5.3-1.27,6.73-3.18l4.82,3.82c-2.49,3.34-6.62,5.41-11.66,5.41ZM192.99,27.68h12.03c-.11-2.65-2.07-5.09-5.62-5.09-3.29,0-5.51,1.59-6.41,5.09Z"/>
    <path class="cls-2" d="M217.25,18.03h6.73v2.65c1.75-1.8,4.03-3.18,7.05-3.18.9,0,1.7.16,2.33.37v7.05c-.85-.21-1.75-.37-2.97-.37-3.29,0-5.41,1.8-6.41,3.44v16.75h-6.73v-26.71Z"/>
    <path class="cls-2" d="M242.71,18.03l6.94,19.08,6.89-19.08h7.26l-9.75,26.71h-8.85l-9.7-26.71h7.21Z"/>
    <path class="cls-2" d="M266.2,8.97c0-2.38,2.01-4.4,4.4-4.4s4.35,2.01,4.35,4.4-1.96,4.4-4.35,4.4-4.4-2.01-4.4-4.4ZM267.21,18.03h6.73v26.71h-6.73v-26.71Z"/>
    <path class="cls-2" d="M299.51,36.32l5.35,4.08c-2.49,3.29-6.41,5.41-11.29,5.41-9.22,0-14.73-6.62-14.73-14.41s5.51-14.41,14.73-14.41c4.88,0,8.8,2.12,11.29,5.41l-5.35,4.08c-1.27-1.85-3.29-3.13-6.04-3.13-4.4,0-7.63,3.39-7.63,8.05s3.23,8.05,7.74,8.05c2.6,0,4.66-1.27,5.94-3.13Z"/>
    <path class="cls-2" d="M321.42,45.8c-9.49,0-14.84-6.62-14.84-14.41s4.98-14.41,13.72-14.41c7.42,0,12.29,4.98,12.29,11.98,0,1.48-.21,2.91-.42,3.82h-18.71c.42,4.4,3.5,7,8.06,7,2.91,0,5.3-1.27,6.73-3.18l4.82,3.82c-2.49,3.34-6.62,5.41-11.66,5.41ZM313.9,27.68h12.03c-.11-2.65-2.07-5.09-5.62-5.09-3.29,0-5.51,1.59-6.41,5.09Z"/>
    <path class="cls-2" d="M349.43,7.65h12.24c8.16,0,13.14,4.19,13.14,11.08s-4.98,11.02-13.14,11.02h-4.72v15h-7.53V7.65ZM356.96,14.06v9.27h5.03c3.18,0,5.09-1.7,5.09-4.72,0-2.81-1.91-4.56-5.09-4.56h-5.03Z"/>
    <path class="cls-2" d="M396.55,18.03h6.78v14.84c0,8-4.66,12.93-12.51,12.93s-12.45-4.93-12.45-12.93v-14.84h6.78v15.16c0,3.87,2.01,6.25,5.72,6.25s5.67-2.38,5.67-6.25v-15.16Z"/>
    <path class="cls-2" d="M424.66,45.8c-3.5,0-6.2-1.06-8.32-2.97v1.91h-6.73V5h6.73v14.94c2.12-1.91,4.82-2.97,8.32-2.97,8.48,0,13.57,6.62,13.57,14.41s-5.09,14.41-13.57,14.41ZM423.71,39.44c4.56,0,7.53-3.39,7.53-8.05s-2.97-8.05-7.53-8.05c-3.13,0-5.51,1.38-7.31,4.03l-.05-.05v8.16l.05-.05c1.8,2.65,4.19,4.03,7.31,4.03Z"/>
    <path class="cls-2" d="M443.36,5h6.73v39.75h-6.73V5Z"/>
    <path class="cls-2" d="M455.7,8.97c0-2.38,2.01-4.4,4.4-4.4s4.35,2.01,4.35,4.4-1.96,4.4-4.35,4.4-4.4-2.01-4.4-4.4ZM456.71,18.03h6.73v26.71h-6.73v-26.71Z"/>
    <path class="cls-2" d="M488.85,36.32l5.35,4.08c-2.49,3.29-6.41,5.41-11.29,5.41-9.22,0-14.73-6.62-14.73-14.41s5.51-14.41,14.73-14.41c4.88,0,8.8,2.12,11.29,5.41l-5.35,4.08c-1.27-1.85-3.29-3.13-6.04-3.13-4.4,0-7.63,3.39-7.63,8.05s3.23,8.05,7.74,8.05c2.6,0,4.66-1.27,5.94-3.13Z"/>
  </g>
  <g>
    <circle class="cls-2" cx="11.45" cy="76.3" r="6.68"/>
    <g>
      <rect class="cls-1" x="34.89" y="28.15" width="66.06" height="11.72" rx="5.86" ry="5.86" transform="translate(142.21 49.83) rotate(165.41)"/>
      <circle class="cls-1" cx="109.76" cy="23.12" r="5.86"/>
    </g>
    <g>
      <rect class="cls-1" x="20.11" y="50.62" width="69.84" height="11.72" rx="5.86" ry="5.86" transform="translate(122.53 97.29) rotate(165.41)"/>
      <circle class="cls-1" cx="98.82" cy="45.09" r="5.86"/>
    </g>
    <g>
      <rect class="cls-4" x="24.39" y="65.51" width="93.79" height="11.72" rx="5.86" ry="5.86" transform="translate(158.25 122.49) rotate(165.41)"/>
      <circle class="cls-4" cx="126.56" cy="56.99" r="5.86"/>
    </g>
    <g>
      <rect class="cls-3" x="38.67" y="84.73" width="64.43" height="11.72" rx="5.86" ry="5.86" transform="translate(162.31 160.42) rotate(165.41)"/>
      <circle class="cls-3" cx="111.58" cy="80" r="5.86"/>
    </g>
  </g>
  <g>
    <path class="cls-5" d="M156.56,56.38h15.5v4.6h-10.11v6.16h8.59v4.6h-8.59v6.65h10.11v4.6h-15.5v-26.6Z"/>
    <path class="cls-5" d="M176.9,63.83h4.82v1.52c1.33-1.29,3.12-2.28,5.66-2.28,4.14,0,7.45,2.85,7.45,8.51v11.4h-4.9v-11.21c0-2.55-1.41-4.14-3.76-4.14s-3.72,1.63-4.45,2.85v12.5h-4.82v-19.15Z"/>
    <path class="cls-5" d="M200.98,68.23h-3.57v-4.41h3.57v-4.79h4.86v4.79h5.85v4.41h-5.85v7.75c0,2.13,1.14,2.96,3.04,2.96,1.33,0,2.2-.15,2.85-.42v4.22c-.95.42-2.09.61-3.69.61-4.79,0-7.07-2.7-7.07-7.37v-7.75Z"/>
    <path class="cls-5" d="M215.73,63.83h4.82v1.9c1.25-1.29,2.89-2.28,5.05-2.28.65,0,1.22.11,1.67.27v5.05c-.61-.15-1.25-.27-2.13-.27-2.36,0-3.88,1.29-4.6,2.47v12.01h-4.82v-19.15Z"/>
    <path class="cls-5" d="M240.02,83.73c-6.8,0-10.64-4.75-10.64-10.33s3.57-10.33,9.84-10.33c5.32,0,8.81,3.57,8.81,8.59,0,1.06-.15,2.09-.3,2.74h-13.41c.3,3.15,2.51,5.02,5.78,5.02,2.09,0,3.8-.91,4.82-2.28l3.46,2.74c-1.79,2.39-4.75,3.88-8.36,3.88ZM234.63,70.74h8.62c-.08-1.9-1.48-3.65-4.03-3.65-2.36,0-3.95,1.14-4.6,3.65Z"/>
    <path class="cls-5" d="M252.31,63.83h4.82v1.37c1.52-1.37,3.46-2.13,5.96-2.13,6.08,0,9.73,4.75,9.73,10.33s-3.65,10.33-9.73,10.33c-2.51,0-4.45-.76-5.96-2.13v10.71h-4.82v-28.5ZM262.42,79.18c3.27,0,5.4-2.43,5.4-5.77s-2.13-5.78-5.4-5.78c-2.24,0-3.95.99-5.24,2.89l-.04-.04v5.85l.04-.04c1.29,1.9,3,2.89,5.24,2.89Z"/>
    <path class="cls-5" d="M276.86,63.83h4.83v1.9c1.25-1.29,2.89-2.28,5.05-2.28.65,0,1.21.11,1.67.27v5.05c-.61-.15-1.25-.27-2.13-.27-2.36,0-3.88,1.29-4.6,2.47v12.01h-4.83v-19.15Z"/>
    <path class="cls-5" d="M301.15,83.73c-6.8,0-10.64-4.75-10.64-10.33s3.57-10.33,9.84-10.33c5.32,0,8.81,3.57,8.81,8.59,0,1.06-.15,2.09-.3,2.74h-13.41c.3,3.15,2.51,5.02,5.78,5.02,2.09,0,3.8-.91,4.83-2.28l3.46,2.74c-1.79,2.39-4.75,3.88-8.36,3.88ZM295.76,70.74h8.62c-.08-1.9-1.48-3.65-4.03-3.65-2.36,0-3.95,1.14-4.6,3.65Z"/>
    <path class="cls-5" d="M313.44,63.83h4.83v1.52c1.33-1.29,3.12-2.28,5.66-2.28,4.14,0,7.45,2.85,7.45,8.51v11.4h-4.9v-11.21c0-2.55-1.41-4.14-3.76-4.14s-3.72,1.63-4.45,2.85v12.5h-4.83v-19.15Z"/>
    <path class="cls-5" d="M344.83,63.07c2.47,0,4.41.76,5.93,2.09v-10.68h4.86v28.5h-4.86v-1.33c-1.52,1.33-3.46,2.09-5.93,2.09-6.04,0-9.73-4.75-9.73-10.33s3.69-10.33,9.73-10.33ZM345.51,79.18c2.24,0,3.99-.99,5.24-2.85v-5.85c-1.29-1.9-3.04-2.85-5.24-2.85-3.27,0-5.36,2.43-5.36,5.78s2.09,5.77,5.36,5.77Z"/>
    <path class="cls-5" d="M360.81,63.83h4.82v1.9c1.25-1.29,2.89-2.28,5.05-2.28.65,0,1.22.11,1.67.27v5.05c-.61-.15-1.25-.27-2.13-.27-2.36,0-3.88,1.29-4.6,2.47v12.01h-4.82v-19.15Z"/>
    <path class="cls-5" d="M385.1,83.73c-6.8,0-10.64-4.75-10.64-10.33s3.57-10.33,9.84-10.33c5.32,0,8.81,3.57,8.81,8.59,0,1.06-.15,2.09-.3,2.74h-13.41c.3,3.15,2.51,5.02,5.78,5.02,2.09,0,3.8-.91,4.82-2.28l3.46,2.74c-1.79,2.39-4.75,3.88-8.36,3.88ZM379.7,70.74h8.62c-.08-1.9-1.48-3.65-4.03-3.65-2.36,0-3.95,1.14-4.6,3.65Z"/>
  </g>
</svg>
